<svg fill="none" xmlns="http://www.w3.org/2000/svg" viewBox="0 0 268 268">
  <mask id="a" maskUnits="userSpaceOnUse" x="0" y="0" width="268" height="268">
    <path d="M134 268a134 134 0 100-268 134 134 0 000 268z" fill="#C4C4C4"/>
  </mask>
  <g mask="url(#a)" fill-rule="evenodd" clip-rule="evenodd" fill="#BFEAEB">
    <path d="M-43.2 166.6a2.7 2.7 0 11-5 1.7 2.7 2.7 0 015-1.7zm-27 12a2.7 2.7 0 10-1.8-5.2 2.7 2.7 0 001.8 5.1zm12.7-4.4a2.7 2.7 0 10-1.7-5 2.7 2.7 0 001.7 5zm-6.8 13.6a2.7 2.7 0 11-5 1.7 2.7 2.7 0 015-1.7zm11-.8a2.7 2.7 0 10-1.7-5.1 2.7 2.7 0 001.7 5zm-6.7 13.5a2.7 2.7 0 11-5 1.7 2.7 2.7 0 015-1.7zm11-.9a2.7 2.7 0 10-1.7-5 2.7 2.7 0 001.7 5zm-6.7 13.6a2.7 2.7 0 11-5.1 1.7 2.7 2.7 0 015-1.7zm11-.9a2.7 2.7 0 10-1.7-5 2.7 2.7 0 001.7 5zm12.6-46.6a2.7 2.7 0 10-1.8-5 2.7 2.7 0 001.8 5zm-6.8 13.6a2.7 2.7 0 11-5 1.7 2.7 2.7 0 015-1.7zm11-1a2.7 2.7 0 10-1.7-5 2.7 2.7 0 001.7 5zm-6.7 13.7a2.7 2.7 0 11-5 1.7 2.7 2.7 0 015-1.7zm11-1a2.7 2.7 0 10-1.7-5 2.7 2.7 0 001.7 5zm-6.7 13.7a2.7 2.7 0 11-5.1 1.7 2.7 2.7 0 015-1.7zm11-1a2.7 2.7 0 10-1.7-5 2.7 2.7 0 001.7 5zm1.5-45.7a2.7 2.7 0 11-5 1.7 2.7 2.7 0 015-1.7zm11-.9a2.7 2.7 0 10-1.7-5 2.7 2.7 0 001.7 5zm-6.7 13.6a2.7 2.7 0 11-5 1.7 2.7 2.7 0 015-1.7zm11-.9a2.7 2.7 0 10-1.7-5 2.7 2.7 0 001.7 5zm-6.7 13.6a2.7 2.7 0 11-5 1.7 2.7 2.7 0 015-1.7zm11-.9a2.7 2.7 0 10-1.7-5 2.7 2.7 0 001.7 5zm-6.7 13.6a2.7 2.7 0 11-5.1 1.7 2.7 2.7 0 015-1.7zm11-.9a2.7 2.7 0 10-1.7-5 2.7 2.7 0 001.7 5zm1.5-45.7a2.7 2.7 0 11-5 1.7 2.7 2.7 0 015-1.7zm11-1a2.7 2.7 0 10-1.7-5 2.7 2.7 0 001.7 5zM12 162.3a2.7 2.7 0 11-5 1.7 2.7 2.7 0 015-1.7zm11-1a2.7 2.7 0 10-1.7-5 2.7 2.7 0 001.7 5zM16.2 175a2.7 2.7 0 11-5 1.7 2.7 2.7 0 015-1.7zm11-1a2.7 2.7 0 10-1.7-5 2.7 2.7 0 001.7 5zm-6.7 13.7a2.7 2.7 0 11-5.1 1.7 2.7 2.7 0 015-1.7zm11-1a2.7 2.7 0 10-1.7-5 2.7 2.7 0 001.7 5zm-83 39.3a2.7 2.7 0 11-5 1.7 2.7 2.7 0 015-1.7zm11-.9a2.7 2.7 0 10-1.6-5 2.7 2.7 0 001.7 5zm-6.7 13.6a2.7 2.7 0 11-5 1.7 2.7 2.7 0 015-1.7zm11-.9a2.7 2.7 0 10-1.7-5 2.7 2.7 0 001.8 5zm-6.7 13.6a2.7 2.7 0 11-5 1.7 2.7 2.7 0 015-1.7zm11-.9a2.7 2.7 0 10-1.7-5 2.7 2.7 0 001.7 5zm-6.7 13.6a2.7 2.7 0 11-5 1.7 2.7 2.7 0 015-1.7zm11-.9a2.7 2.7 0 10-1.7-5 2.7 2.7 0 001.7 5zm1.6-45.7a2.7 2.7 0 11-5.1 1.7 2.7 2.7 0 015-1.7zm11-1a2.7 2.7 0 10-1.7-5 2.7 2.7 0 001.7 5zm-6.8 13.7a2.7 2.7 0 11-5 1.7 2.7 2.7 0 015-1.7zm11-1a2.7 2.7 0 10-1.7-5 2.7 2.7 0 001.8 5zm-6.7 13.7a2.7 2.7 0 11-5 1.7 2.7 2.7 0 015-1.7zm11-1a2.7 2.7 0 10-1.7-5 2.7 2.7 0 001.7 5zm-6.7 13.7a2.7 2.7 0 11-5 1.7 2.7 2.7 0 015-1.7zm11-1a2.7 2.7 0 10-1.7-5 2.7 2.7 0 001.7 5zm1.5-45.7a2.7 2.7 0 11-5 1.7 2.7 2.7 0 015-1.7zm11-.9a2.7 2.7 0 10-1.6-5 2.7 2.7 0 001.7 5zm-6.7 13.6a2.7 2.7 0 11-5 1.7 2.7 2.7 0 015-1.7zm11-.9a2.7 2.7 0 10-1.7-5 2.7 2.7 0 001.7 5zM8 234.2a2.7 2.7 0 11-5 1.7 2.7 2.7 0 015-1.7zm11-.9a2.7 2.7 0 10-1.7-5 2.7 2.7 0 001.7 5zM12.2 247a2.7 2.7 0 11-5 1.7 2.7 2.7 0 015-1.7zm11-.9a2.7 2.7 0 10-1.7-5 2.7 2.7 0 001.7 5zm1.5-45.7a2.7 2.7 0 11-5 1.7 2.7 2.7 0 015-1.7zm11-1a2.7 2.7 0 10-1.6-5 2.7 2.7 0 001.7 5zM29 213a2.7 2.7 0 11-5 1.7 2.7 2.7 0 015-1.7zm11-1a2.7 2.7 0 10-1.7-5 2.7 2.7 0 001.7 5zm-6.7 13.6a2.7 2.7 0 11-5 1.8 2.7 2.7 0 015-1.8zm11-.8a2.7 2.7 0 10-1.7-5.1 2.7 2.7 0 001.7 5zm-6.7 13.5a2.7 2.7 0 11-5.1 1.8 2.7 2.7 0 015-1.8zm11-.8a2.7 2.7 0 10-1.7-5.1 2.7 2.7 0 001.7 5zM33 140.9a2.7 2.7 0 11-5 1.7 2.7 2.7 0 015-1.7zm11-.9a2.7 2.7 0 10-1.7-5 2.7 2.7 0 001.7 5zm-6.7 13.6a2.7 2.7 0 11-5 1.7 2.7 2.7 0 015-1.7zm11-.9a2.7 2.7 0 10-1.7-5 2.7 2.7 0 001.7 5zm-6.7 13.6a2.7 2.7 0 11-5 1.7 2.7 2.7 0 015-1.7zm11-.9a2.7 2.7 0 10-1.7-5 2.7 2.7 0 001.7 5zM45.9 179a2.7 2.7 0 11-5.1 1.7 2.7 2.7 0 015-1.7zm11-.9a2.7 2.7 0 10-1.7-5 2.7 2.7 0 001.7 5zm1.5-45.8a2.7 2.7 0 11-5 1.7 2.7 2.7 0 015-1.7zm11-.8a2.7 2.7 0 10-1.7-5.1 2.7 2.7 0 001.7 5zM62.7 145a2.7 2.7 0 11-5 1.8 2.7 2.7 0 015-1.8zm11-.8A2.7 2.7 0 1072 139a2.7 2.7 0 001.7 5zM67 157.7a2.7 2.7 0 11-5.1 1.7 2.7 2.7 0 015-1.7zm11-.8a2.7 2.7 0 10-1.7-5.1 2.7 2.7 0 001.7 5zm-6.7 13.5a2.7 2.7 0 11-5.1 1.7 2.7 2.7 0 015-1.7zm11-.8a2.7 2.7 0 10-1.7-5.1 2.7 2.7 0 001.7 5zm1.5-45.8a2.7 2.7 0 11-5 1.7 2.7 2.7 0 015-1.7zm11-.9a2.7 2.7 0 10-1.7-5 2.7 2.7 0 001.7 5zm-6.7 13.6a2.7 2.7 0 11-5 1.7 2.7 2.7 0 015-1.7zm11-.9a2.7 2.7 0 10-1.7-5 2.7 2.7 0 001.7 5zm-6.7 13.6a2.7 2.7 0 11-5.1 1.7 2.7 2.7 0 015-1.7zm11-1a2.7 2.7 0 10-1.7-5 2.7 2.7 0 001.7 5zM96.7 162a2.7 2.7 0 11-5.1 1.7 2.7 2.7 0 015-1.7zm11-1a2.7 2.7 0 10-1.7-5 2.7 2.7 0 001.7 5zm1.5-45.7a2.7 2.7 0 11-5 1.7 2.7 2.7 0 015-1.7zm11-.9a2.7 2.7 0 10-1.7-5 2.7 2.7 0 001.7 5zm-6.7 13.6a2.7 2.7 0 11-5 1.7 2.7 2.7 0 015-1.7zm11-.9a2.7 2.7 0 10-1.7-5 2.7 2.7 0 001.7 5zm-6.7 13.6a2.7 2.7 0 11-5.1 1.7 2.7 2.7 0 015-1.7zm11-.9a2.7 2.7 0 10-1.7-5 2.7 2.7 0 001.7 5zm-6.7 13.6a2.7 2.7 0 11-5.1 1.7 2.7 2.7 0 015-1.7zm11-.9a2.7 2.7 0 10-1.7-5 2.7 2.7 0 001.7 5zm-83 39.3a2.7 2.7 0 11-5 1.7 2.7 2.7 0 015-1.7zm11-.9a2.7 2.7 0 10-1.6-5 2.7 2.7 0 001.7 5zm-6.7 13.6a2.7 2.7 0 11-5 1.7 2.7 2.7 0 015-1.7zm11-.9a2.7 2.7 0 10-1.7-5 2.7 2.7 0 001.7 5zm-6.7 13.6a2.7 2.7 0 11-5 1.7 2.7 2.7 0 015-1.7zm11-.9a2.7 2.7 0 10-1.7-5 2.7 2.7 0 001.7 5zM63 229.8a2.7 2.7 0 11-5.1 1.7 2.7 2.7 0 015-1.7zm11-.9a2.7 2.7 0 10-1.7-5 2.7 2.7 0 001.7 5zm1.5-45.8a2.7 2.7 0 11-5 1.7 2.7 2.7 0 015-1.7zm11-.9a2.7 2.7 0 10-1.7-5 2.7 2.7 0 001.8 5zm-6.7 13.6a2.7 2.7 0 11-5 1.7 2.7 2.7 0 015-1.7zm11-.9a2.7 2.7 0 10-1.7-5 2.7 2.7 0 001.7 5zm-6.7 13.6a2.7 2.7 0 11-5 1.7 2.7 2.7 0 015-1.7zm11-.9a2.7 2.7 0 10-1.7-5 2.7 2.7 0 001.7 5zm-6.7 13.6a2.7 2.7 0 11-5.1 1.7 2.7 2.7 0 015-1.7zm11-.9a2.7 2.7 0 10-1.7-5 2.7 2.7 0 001.7 5zm1.5-45.7a2.7 2.7 0 11-5 1.7 2.7 2.7 0 015-1.7zm11-1a2.7 2.7 0 10-1.7-5 2.7 2.7 0 001.8 5zm-6.7 13.7a2.7 2.7 0 11-5 1.7 2.7 2.7 0 015-1.7zm11-1a2.7 2.7 0 10-1.7-5 2.7 2.7 0 001.7 5zm-6.7 13.7a2.7 2.7 0 11-5 1.7 2.7 2.7 0 015-1.7zm11-1a2.7 2.7 0 10-1.7-5 2.7 2.7 0 001.7 5zm-6.7 13.7a2.7 2.7 0 11-5.1 1.7 2.7 2.7 0 015-1.7zm11-1a2.7 2.7 0 10-1.7-5 2.7 2.7 0 001.7 5zm1.5-45.7a2.7 2.7 0 11-5 1.7 2.7 2.7 0 015-1.7zm11-.9a2.7 2.7 0 10-1.7-5 2.7 2.7 0 001.7 5zm-6.7 13.6a2.7 2.7 0 11-5 1.7 2.7 2.7 0 015-1.7zm11-.9a2.7 2.7 0 10-1.7-5 2.7 2.7 0 001.7 5zm-6.7 13.6a2.7 2.7 0 11-5 1.7 2.7 2.7 0 015-1.7zm11-.9a2.7 2.7 0 10-1.7-5 2.7 2.7 0 001.7 5zm-6.7 13.6a2.7 2.7 0 11-5.1 1.7 2.7 2.7 0 015-1.7zm11-.9a2.7 2.7 0 10-1.7-5 2.7 2.7 0 001.7 5zM-77.4 65a2.7 2.7 0 11-5 1.7 2.7 2.7 0 015-1.7zm-27 12a2.7 2.7 0 10-1.8-5.1 2.7 2.7 0 001.7 5zm12.6-4.3a2.7 2.7 0 10-1.7-5.1 2.7 2.7 0 001.7 5zm-6.7 13.5a2.7 2.7 0 11-5.1 1.8 2.7 2.7 0 015-1.8zm11-.8a2.7 2.7 0 10-1.7-5.1 2.7 2.7 0 001.7 5zm-6.7 13.5a2.7 2.7 0 11-5.1 1.7 2.7 2.7 0 015-1.7zm11-.8A2.7 2.7 0 10-85 93a2.7 2.7 0 001.7 5zm-6.8 13.5a2.7 2.7 0 11-5 1.8 2.7 2.7 0 015-1.8zm11-.8a2.7 2.7 0 10-1.6-5.1 2.7 2.7 0 001.7 5zM-66.3 64a2.7 2.7 0 10-1.7-5 2.7 2.7 0 001.7 5zM-73 77.7a2.7 2.7 0 11-5.1 1.7 2.7 2.7 0 015-1.7zm11-.9a2.7 2.7 0 10-1.7-5 2.7 2.7 0 001.7 5zm-6.7 13.6A2.7 2.7 0 11-74 92a2.7 2.7 0 015-1.7zm11-.9a2.7 2.7 0 10-1.7-5 2.7 2.7 0 001.7 5zm-6.8 13.6a2.7 2.7 0 11-5 1.7 2.7 2.7 0 015-1.7zm11-.9a2.7 2.7 0 10-1.7-5 2.7 2.7 0 001.8 5zm1.6-45.8a2.7 2.7 0 11-5 1.7 2.7 2.7 0 015-1.7zm11-.9a2.7 2.7 0 10-1.7-5 2.7 2.7 0 001.7 5zm-6.7 13.6a2.7 2.7 0 11-5.1 1.7 2.7 2.7 0 015-1.7zm11-.9a2.7 2.7 0 10-1.7-5 2.7 2.7 0 001.7 5zm-6.7 13.6a2.7 2.7 0 11-5.1 1.7 2.7 2.7 0 015-1.7zm11-.9a2.7 2.7 0 10-1.7-5 2.7 2.7 0 001.7 5zm-6.8 13.6a2.7 2.7 0 11-5 1.7 2.7 2.7 0 015-1.7zm11-.9a2.7 2.7 0 10-1.7-5 2.7 2.7 0 001.8 5zm1.6-45.7a2.7 2.7 0 11-5 1.7 2.7 2.7 0 015-1.7zm11-1a2.7 2.7 0 10-1.7-5 2.7 2.7 0 001.7 5zm-6.7 13.7a2.7 2.7 0 11-5.1 1.7 2.7 2.7 0 015-1.7zm11-1a2.7 2.7 0 10-1.7-5 2.7 2.7 0 001.7 5zm-6.8 13.7a2.7 2.7 0 11-5 1.7 2.7 2.7 0 015-1.7zm11-1a2.7 2.7 0 10-1.6-5 2.7 2.7 0 001.7 5zM-13.7 86a2.7 2.7 0 11-5 1.7 2.7 2.7 0 015-1.7zm11-1a2.7 2.7 0 10-1.7-5 2.7 2.7 0 001.7 5zm-82.9 39.3a2.7 2.7 0 11-5 1.7 2.7 2.7 0 015-1.7zm11-.8a2.7 2.7 0 10-1.7-5.1 2.7 2.7 0 001.7 5zm-6.7 13.5a2.7 2.7 0 11-5 1.7 2.7 2.7 0 015-1.7zm11-.8A2.7 2.7 0 10-72 131a2.7 2.7 0 001.7 5zm-6.7 13.5a2.7 2.7 0 11-5.1 1.7 2.7 2.7 0 015-1.7zm11-.9a2.7 2.7 0 10-1.7-5 2.7 2.7 0 001.7 5zm-6.7 13.6a2.7 2.7 0 11-5.1 1.7 2.7 2.7 0 015-1.7zm11-.9a2.7 2.7 0 10-1.7-5 2.7 2.7 0 001.7 5zm1.5-45.7a2.7 2.7 0 11-5 1.7 2.7 2.7 0 015-1.7zm11-1a2.7 2.7 0 10-1.7-5 2.7 2.7 0 001.7 5zm-6.7 13.7a2.7 2.7 0 11-5 1.7 2.7 2.7 0 015-1.7zm11-1a2.7 2.7 0 10-1.7-5 2.7 2.7 0 001.7 5zm-6.7 13.7a2.7 2.7 0 11-5.1 1.7 2.7 2.7 0 015-1.7zm11-1a2.7 2.7 0 10-1.7-5 2.7 2.7 0 001.7 5zm-6.7 13.7a2.7 2.7 0 11-5.1 1.7 2.7 2.7 0 015-1.7zm11-1a2.7 2.7 0 10-1.7-5 2.7 2.7 0 001.7 5zm1.5-45.7a2.7 2.7 0 11-5 1.7 2.7 2.7 0 015-1.7zm11-.9a2.7 2.7 0 10-1.7-5 2.7 2.7 0 001.7 5zm-6.7 13.6a2.7 2.7 0 11-5 1.7 2.7 2.7 0 015-1.7zm11-.9a2.7 2.7 0 10-1.7-5 2.7 2.7 0 001.7 5zm-6.7 13.6a2.7 2.7 0 11-5.1 1.7 2.7 2.7 0 015-1.7zm11-.9a2.7 2.7 0 10-1.7-5 2.7 2.7 0 001.7 5zm-6.7 13.6a2.7 2.7 0 11-5.1 1.7 2.7 2.7 0 015-1.7zm11-.9a2.7 2.7 0 10-1.7-5 2.7 2.7 0 001.7 5zm1.5-45.7a2.7 2.7 0 11-5 1.7 2.7 2.7 0 015-1.7zm11-1a2.7 2.7 0 10-1.7-5 2.7 2.7 0 001.7 5zm-6.7 13.7a2.7 2.7 0 11-5 1.7 2.7 2.7 0 015-1.7zm11-1a2.7 2.7 0 10-1.7-5 2.7 2.7 0 001.7 5zm-6.7 13.7a2.7 2.7 0 11-5.1 1.7 2.7 2.7 0 015-1.7zm11-1a2.7 2.7 0 10-1.7-5 2.7 2.7 0 001.7 5zm-6.8 13.7a2.7 2.7 0 11-5 1.7 2.7 2.7 0 015-1.7zm11-1a2.7 2.7 0 10-1.6-5 2.7 2.7 0 001.7 5zM-1.1 39.4a2.7 2.7 0 11-5 1.7 2.7 2.7 0 015-1.7zm11-.9a2.7 2.7 0 10-1.7-5 2.7 2.7 0 001.7 5zM3.1 52A2.7 2.7 0 11-2 53.7 2.7 2.7 0 013 52zm11-.9a2.7 2.7 0 10-1.7-5 2.7 2.7 0 001.7 5zM7.3 64.7a2.7 2.7 0 11-5 1.7 2.7 2.7 0 015-1.7zm11-.9a2.7 2.7 0 10-1.6-5 2.7 2.7 0 001.7 5zm-6.7 13.6a2.7 2.7 0 11-5 1.7 2.7 2.7 0 015-1.7zm11-.9a2.7 2.7 0 10-1.7-5 2.7 2.7 0 001.7 5zm1.6-45.7a2.7 2.7 0 11-5.1 1.7 2.7 2.7 0 015-1.7zm11-1a2.7 2.7 0 10-1.7-5 2.7 2.7 0 001.7 5zm-6.7 13.7a2.7 2.7 0 11-5.1 1.7 2.7 2.7 0 015-1.7zm11-1a2.7 2.7 0 10-1.7-5 2.7 2.7 0 001.7 5zm-6.8 13.6a2.7 2.7 0 11-5 1.8 2.7 2.7 0 015-1.8zm11-.8a2.7 2.7 0 10-1.6-5.1 2.7 2.7 0 001.7 5zM37 68.9a2.7 2.7 0 11-5 1.7 2.7 2.7 0 015-1.7zm11-1a2.7 2.7 0 10-1.7-5 2.7 2.7 0 001.7 5zm1.6-45.7a2.7 2.7 0 11-5.1 1.7 2.7 2.7 0 015-1.7zm11-.9a2.7 2.7 0 10-1.7-5 2.7 2.7 0 001.7 5zM53.9 35a2.7 2.7 0 11-5.1 1.7 2.7 2.7 0 015-1.7zm11-.9a2.7 2.7 0 10-1.7-5 2.7 2.7 0 001.7 5zM58 47.6a2.7 2.7 0 11-5 1.7 2.7 2.7 0 015-1.7zm11-.9a2.7 2.7 0 10-1.7-5 2.7 2.7 0 001.8 5zm-6.7 13.6a2.7 2.7 0 11-5 1.7 2.7 2.7 0 015-1.7zm11-.9a2.7 2.7 0 10-1.7-5 2.7 2.7 0 001.7 5zM75 13.6a2.7 2.7 0 11-5.1 1.7 2.7 2.7 0 015-1.7zm11-.9a2.7 2.7 0 10-1.7-5 2.7 2.7 0 001.7 5zm-6.7 13.6a2.7 2.7 0 11-5.1 1.7 2.7 2.7 0 015-1.7zm11-.8a2.7 2.7 0 10-1.7-5.1 2.7 2.7 0 001.7 5zM83.5 39a2.7 2.7 0 11-5 1.7 2.7 2.7 0 015-1.7zm11-.9a2.7 2.7 0 10-1.7-5 2.7 2.7 0 001.8 5zm-6.7 13.6a2.7 2.7 0 11-5 1.7 2.7 2.7 0 015-1.7zm11-.9a2.7 2.7 0 10-1.7-5 2.7 2.7 0 001.7 5zM16 90.1a2.7 2.7 0 11-5 1.7 2.7 2.7 0 015-1.7zm11-.9a2.7 2.7 0 10-1.7-5 2.7 2.7 0 001.7 5zm-6.7 13.6a2.7 2.7 0 11-5.1 1.7 2.7 2.7 0 015-1.7zm11-.9a2.7 2.7 0 10-1.7-5 2.7 2.7 0 001.7 5zm-6.7 13.6a2.7 2.7 0 11-5.1 1.7 2.7 2.7 0 015-1.7zm11-.9a2.7 2.7 0 10-1.7-5 2.7 2.7 0 001.7 5zm-6.8 13.6a2.7 2.7 0 11-5 1.7 2.7 2.7 0 015-1.7zm11-.9a2.7 2.7 0 10-1.6-5 2.7 2.7 0 001.7 5zm1.6-45.8a2.7 2.7 0 11-5 1.8 2.7 2.7 0 015-1.8zm11-.8a2.7 2.7 0 10-1.7-5.1 2.7 2.7 0 001.7 5zm-6.7 13.5a2.7 2.7 0 11-5.1 1.8 2.7 2.7 0 015-1.8zm11-.8a2.7 2.7 0 10-1.7-5.1 2.7 2.7 0 001.7 5zm-6.7 13.5a2.7 2.7 0 11-5.1 1.7 2.7 2.7 0 015-1.7zm11-.8a2.7 2.7 0 10-1.7-5.1 2.7 2.7 0 001.7 5zM54 119.6a2.7 2.7 0 11-5 1.7 2.7 2.7 0 015-1.7zm11-.8a2.7 2.7 0 10-1.7-5.1 2.7 2.7 0 001.8 5zM66.8 73a2.7 2.7 0 11-5 1.7 2.7 2.7 0 015-1.7zm11-.9a2.7 2.7 0 10-1.7-5 2.7 2.7 0 001.7 5zM71 85.7a2.7 2.7 0 11-5.1 1.7 2.7 2.7 0 015-1.7zm11-.9a2.7 2.7 0 10-1.7-5 2.7 2.7 0 001.7 5zm-6.7 13.6a2.7 2.7 0 11-5.1 1.7 2.7 2.7 0 015-1.7zm11-1a2.7 2.7 0 10-1.7-5 2.7 2.7 0 001.7 5zm-6.8 13.7a2.7 2.7 0 11-5 1.7 2.7 2.7 0 015-1.7zm11-.9a2.7 2.7 0 10-1.7-5 2.7 2.7 0 001.8 5zm1.6-45.8a2.7 2.7 0 11-5 1.7 2.7 2.7 0 015-1.7zm11-.9a2.7 2.7 0 10-1.7-5 2.7 2.7 0 001.7 5zm-6.7 13.6a2.7 2.7 0 11-5.1 1.7 2.7 2.7 0 015-1.7zm11-.9a2.7 2.7 0 10-1.7-5 2.7 2.7 0 001.7 5zm-6.7 13.6a2.7 2.7 0 11-5.1 1.7 2.7 2.7 0 015-1.7zm11-.9a2.7 2.7 0 10-1.7-5 2.7 2.7 0 001.7 5zm-6.8 13.6a2.7 2.7 0 11-5 1.7 2.7 2.7 0 015-1.7zm11-.9a2.7 2.7 0 10-1.7-5 2.7 2.7 0 001.7 5zM-36 280.1a2.7 2.7 0 10-1.7-5 2.7 2.7 0 001.7 5zm12.7-4.3a2.7 2.7 0 10-1.7-5 2.7 2.7 0 001.7 5zm-6.7 13.6a2.7 2.7 0 11-5.1 1.7 2.7 2.7 0 015-1.7zm11-.9a2.7 2.7 0 10-1.7-5 2.7 2.7 0 001.7 5zm-6.8 13.6a2.7 2.7 0 11-5 1.7 2.7 2.7 0 015-1.7zm11-.9a2.7 2.7 0 10-1.7-5 2.7 2.7 0 001.8 5zm-6.7 13.6a2.7 2.7 0 11-5 1.7 2.7 2.7 0 015-1.7zm11-.9a2.7 2.7 0 10-1.7-5 2.7 2.7 0 001.7 5zm1.6-45.7a2.7 2.7 0 11-5.1 1.7 2.7 2.7 0 015-1.7zm11-1a2.7 2.7 0 10-1.7-5 2.7 2.7 0 001.7 5zM-4.6 281a2.7 2.7 0 11-5.1 1.7 2.7 2.7 0 015-1.7zm11-1a2.7 2.7 0 10-1.7-5 2.7 2.7 0 001.7 5zm-6.8 13.7a2.7 2.7 0 11-5 1.7 2.7 2.7 0 015-1.7zm11-1a2.7 2.7 0 10-1.7-5 2.7 2.7 0 001.7 5zM4 306.4a2.7 2.7 0 11-5 1.7 2.7 2.7 0 015-1.7zm11-1a2.7 2.7 0 10-1.7-5 2.7 2.7 0 001.7 5zm1.6-45.7a2.7 2.7 0 11-5.1 1.7 2.7 2.7 0 015-1.7zm11-.9a2.7 2.7 0 10-1.7-5 2.7 2.7 0 001.7 5zm-6.8 13.6a2.7 2.7 0 11-5 1.7 2.7 2.7 0 015-1.7zm11-.9a2.7 2.7 0 10-1.6-5 2.7 2.7 0 001.7 5zM25 285a2.7 2.7 0 11-5 1.7 2.7 2.7 0 015-1.7zm11-.9a2.7 2.7 0 10-1.7-5 2.7 2.7 0 001.7 5zm-6.7 13.6a2.7 2.7 0 11-5 1.7 2.7 2.7 0 015-1.7zm11-.9a2.7 2.7 0 10-1.7-5 2.7 2.7 0 001.7 5zM42 251a2.7 2.7 0 11-5.1 1.8 2.7 2.7 0 015-1.8zm11-.8a2.7 2.7 0 10-1.7-5.1 2.7 2.7 0 001.7 5zM46 263.7a2.7 2.7 0 11-5 1.8 2.7 2.7 0 015-1.8zm11-.8a2.7 2.7 0 10-1.6-5.1 2.7 2.7 0 001.7 5zm-6.7 13.5a2.7 2.7 0 11-5 1.7 2.7 2.7 0 015-1.7zm11-.8a2.7 2.7 0 10-1.7-5.1 2.7 2.7 0 001.7 5zM54.7 289a2.7 2.7 0 11-5 1.7 2.7 2.7 0 015-1.7zm11-.8a2.7 2.7 0 10-1.7-5.1 2.7 2.7 0 001.7 5zm-83 39.2a2.7 2.7 0 11-5 1.7 2.7 2.7 0 015-1.7zm11.1-.9a2.7 2.7 0 10-1.7-5 2.7 2.7 0 001.7 5zm-6.7 13.6A2.7 2.7 0 11-18 342a2.7 2.7 0 015-1.7zm11-.9a2.7 2.7 0 10-1.7-5 2.7 2.7 0 001.7 5zM-8.6 353a2.7 2.7 0 11-5.1 1.7 2.7 2.7 0 015-1.7zm11-.9a2.7 2.7 0 10-1.7-5 2.7 2.7 0 001.7 5zm-6.8 13.6a2.7 2.7 0 11-5 1.7 2.7 2.7 0 015-1.7zm11-.9a2.7 2.7 0 10-1.7-5 2.7 2.7 0 001.7 5zM8.2 319a2.7 2.7 0 11-5 1.7 2.7 2.7 0 015-1.7zm11-1a2.7 2.7 0 10-1.7-5 2.7 2.7 0 001.7 5zm-6.7 13.7a2.7 2.7 0 11-5.1 1.7 2.7 2.7 0 015-1.7zm11-1a2.7 2.7 0 10-1.7-5 2.7 2.7 0 001.7 5zm-6.8 13.6a2.7 2.7 0 11-5 1.8 2.7 2.7 0 015-1.8zm11-.8a2.7 2.7 0 10-1.6-5.1 2.7 2.7 0 001.7 5zM21 357a2.7 2.7 0 11-5 1.8 2.7 2.7 0 015-1.8zm11-.8a2.7 2.7 0 10-1.7-5.1 2.7 2.7 0 001.7 5zm1.6-45.8a2.7 2.7 0 11-5.1 1.7 2.7 2.7 0 015-1.7zm11-.9a2.7 2.7 0 10-1.7-5 2.7 2.7 0 001.7 5zm-6.7 13.6a2.7 2.7 0 11-5.1 1.7 2.7 2.7 0 015-1.7zm11-.9a2.7 2.7 0 10-1.7-5 2.7 2.7 0 001.7 5zM42 335.8a2.7 2.7 0 11-5 1.7 2.7 2.7 0 015-1.7zm11-.9a2.7 2.7 0 10-1.6-5 2.7 2.7 0 001.7 5zm-6.7 13.6a2.7 2.7 0 11-5 1.7 2.7 2.7 0 015-1.7zm11-.9a2.7 2.7 0 10-1.7-5 2.7 2.7 0 001.7 5zm1.6-45.8a2.7 2.7 0 11-5.1 1.7 2.7 2.7 0 015-1.7zm11-.9a2.7 2.7 0 10-1.7-5 2.7 2.7 0 001.7 5zm-6.7 13.6a2.7 2.7 0 11-5.1 1.7 2.7 2.7 0 015-1.7zm11-.8a2.7 2.7 0 10-1.7-5.1 2.7 2.7 0 001.7 5zm-6.8 13.5a2.7 2.7 0 11-5 1.7 2.7 2.7 0 015-1.7zm11-.9a2.7 2.7 0 10-1.7-5 2.7 2.7 0 001.8 5zM71.9 340a2.7 2.7 0 11-5 1.7 2.7 2.7 0 015-1.7zm11-.9a2.7 2.7 0 10-1.7-5 2.7 2.7 0 001.7 5zm-15.5-96.5a2.7 2.7 0 11-5.1 1.7 2.7 2.7 0 015-1.7zm11-.9a2.7 2.7 0 10-1.7-5 2.7 2.7 0 001.7 5zm-6.8 13.6a2.7 2.7 0 11-5 1.7 2.7 2.7 0 015-1.7zm11-.9a2.7 2.7 0 10-1.7-5 2.7 2.7 0 001.8 5zm-6.7 13.6a2.7 2.7 0 11-5 1.7 2.7 2.7 0 015-1.7zm11-1a2.7 2.7 0 10-1.7-5 2.7 2.7 0 001.7 5zm-6.7 13.7a2.7 2.7 0 11-5 1.7 2.7 2.7 0 015-1.7zm11-1a2.7 2.7 0 10-1.7-5 2.7 2.7 0 001.7 5zm1.6-45.7a2.7 2.7 0 11-5.1 1.7 2.7 2.7 0 015-1.7zm11-.9a2.7 2.7 0 10-1.7-5 2.7 2.7 0 001.7 5zm-6.8 13.6a2.7 2.7 0 11-5 1.7 2.7 2.7 0 015-1.7zm11-.9a2.7 2.7 0 10-1.7-5 2.7 2.7 0 001.8 5zm-6.7 13.6a2.7 2.7 0 11-5 1.7 2.7 2.7 0 015-1.7zm11-.9a2.7 2.7 0 10-1.7-5 2.7 2.7 0 001.7 5zm-6.7 13.6a2.7 2.7 0 11-5 1.7 2.7 2.7 0 015-1.7zm11-.9a2.7 2.7 0 10-1.7-5 2.7 2.7 0 001.7 5zm1.6-45.7a2.7 2.7 0 11-5.1 1.7 2.7 2.7 0 015-1.7zm11-1a2.7 2.7 0 10-1.7-5 2.7 2.7 0 001.7 5zm-6.8 13.7a2.7 2.7 0 11-5 1.7 2.7 2.7 0 015-1.7zm11-1a2.7 2.7 0 10-1.7-5 2.7 2.7 0 001.7 5zm-6.7 13.7a2.7 2.7 0 11-5 1.7 2.7 2.7 0 015-1.7zm11-1a2.7 2.7 0 10-1.7-5 2.7 2.7 0 001.7 5zm-6.7 13.7a2.7 2.7 0 11-5 1.7 2.7 2.7 0 015-1.7zm11-1a2.7 2.7 0 10-1.7-5 2.7 2.7 0 001.7 5zm1.5-45.7a2.7 2.7 0 11-5 1.7 2.7 2.7 0 015-1.7zm11-.9a2.7 2.7 0 10-1.6-5 2.7 2.7 0 001.7 5zm-6.7 13.6a2.7 2.7 0 11-5 1.7 2.7 2.7 0 015-1.7zm11-.9a2.7 2.7 0 10-1.7-5 2.7 2.7 0 001.7 5zm-6.7 13.6a2.7 2.7 0 11-5 1.7 2.7 2.7 0 015-1.7zm11-.9a2.7 2.7 0 10-1.7-5 2.7 2.7 0 001.7 5zm-6.7 13.6a2.7 2.7 0 11-5.1 1.7 2.7 2.7 0 015-1.7zm11-.9a2.7 2.7 0 10-1.7-5 2.7 2.7 0 001.7 5zm-83 39.3a2.7 2.7 0 11-5 1.7 2.7 2.7 0 015-1.7zm11-1a2.7 2.7 0 10-1.6-5 2.7 2.7 0 001.7 5zM88.8 306a2.7 2.7 0 11-5.1 1.7 2.7 2.7 0 015-1.7zm11-1a2.7 2.7 0 10-1.7-5 2.7 2.7 0 001.7 5zm-6.8 13.7a2.7 2.7 0 11-5 1.7 2.7 2.7 0 015-1.7zm11-1a2.7 2.7 0 10-1.6-5 2.7 2.7 0 001.7 5zm-6.7 13.7a2.7 2.7 0 11-5 1.7 2.7 2.7 0 015-1.7zm11-1a2.7 2.7 0 10-1.7-5 2.7 2.7 0 001.7 5zm1.6-45.7a2.7 2.7 0 11-5.1 1.7 2.7 2.7 0 015-1.7zm11-.9a2.7 2.7 0 10-1.7-5 2.7 2.7 0 001.7 5zm-6.7 13.6a2.7 2.7 0 11-5.1 1.7 2.7 2.7 0 015-1.7zm11-.9a2.7 2.7 0 10-1.7-5 2.7 2.7 0 001.7 5zm-6.8 13.6a2.7 2.7 0 11-5 1.7 2.7 2.7 0 015-1.7zm11-.9a2.7 2.7 0 10-1.7-5 2.7 2.7 0 001.7 5zm-6.7 13.6a2.7 2.7 0 11-5 1.7 2.7 2.7 0 015-1.7zm11-.9a2.7 2.7 0 10-1.7-5 2.7 2.7 0 001.7 5zm1.6-45.7a2.7 2.7 0 11-5.1 1.7 2.7 2.7 0 015-1.7zm11-1a2.7 2.7 0 10-1.7-5 2.7 2.7 0 001.7 5zm-6.8 13.7a2.7 2.7 0 11-5 1.7 2.7 2.7 0 015-1.7zm11-1a2.7 2.7 0 10-1.6-5 2.7 2.7 0 001.7 5zm-6.7 13.7a2.7 2.7 0 11-5 1.7 2.7 2.7 0 015-1.7zm11-1a2.7 2.7 0 10-1.7-5 2.7 2.7 0 001.7 5zm-6.7 13.7a2.7 2.7 0 11-5 1.7 2.7 2.7 0 015-1.7zm11-1a2.7 2.7 0 10-1.7-5 2.7 2.7 0 001.7 5zm1.6-45.7a2.7 2.7 0 11-5.1 1.7 2.7 2.7 0 015-1.7zm11-.9a2.7 2.7 0 10-1.7-5 2.7 2.7 0 001.7 5zm-6.8 13.6a2.7 2.7 0 11-5 1.7 2.7 2.7 0 015-1.7zm11-.9a2.7 2.7 0 10-1.6-5 2.7 2.7 0 001.7 5zm-6.7 13.6a2.7 2.7 0 11-5 1.7 2.7 2.7 0 015-1.7zm11-.9a2.7 2.7 0 10-1.7-5 2.7 2.7 0 001.7 5zm-6.7 13.6a2.7 2.7 0 11-5 1.7 2.7 2.7 0 015-1.7zm11-.9a2.7 2.7 0 10-1.7-5 2.7 2.7 0 001.7 5zM160 98.1a2.7 2.7 0 11-5 1.7 2.7 2.7 0 015-1.7zm-27 12a2.7 2.7 0 10-1.8-5.1 2.7 2.7 0 001.7 5zm12.6-4.3a2.7 2.7 0 10-1.7-5.1 2.7 2.7 0 001.7 5zm-6.7 13.6a2.7 2.7 0 11-5 1.7 2.7 2.7 0 015-1.7zm11-1a2.7 2.7 0 10-1.7-5 2.7 2.7 0 001.7 5zm-6.7 13.7a2.7 2.7 0 11-5.1 1.7 2.7 2.7 0 015-1.7zm11-1a2.7 2.7 0 10-1.7-5 2.7 2.7 0 001.7 5zm-6.7 13.7a2.7 2.7 0 11-5.1 1.7 2.7 2.7 0 015-1.7zm11-1a2.7 2.7 0 10-1.7-5 2.7 2.7 0 001.7 5zM171 97.3a2.7 2.7 0 10-1.7-5 2.7 2.7 0 001.7 5zm-6.7 13.6a2.7 2.7 0 11-5 1.7 2.7 2.7 0 015-1.7zm11-.9a2.7 2.7 0 10-1.7-5 2.7 2.7 0 001.7 5zm-6.7 13.6a2.7 2.7 0 11-5.1 1.7 2.7 2.7 0 015-1.7zm11-.9a2.7 2.7 0 10-1.7-5 2.7 2.7 0 001.7 5zm-6.8 13.6a2.7 2.7 0 11-5 1.7 2.7 2.7 0 015-1.7zm11-.9a2.7 2.7 0 10-1.6-5 2.7 2.7 0 001.7 5zm1.6-45.8a2.7 2.7 0 11-5 1.8 2.7 2.7 0 015-1.8zm11-.8a2.7 2.7 0 10-1.7-5.1 2.7 2.7 0 001.7 5zm-6.7 13.5a2.7 2.7 0 11-5.1 1.8 2.7 2.7 0 015-1.8zm11-.8a2.7 2.7 0 10-1.7-5.1 2.7 2.7 0 001.7 5zm-6.7 13.5a2.7 2.7 0 11-5.1 1.7 2.7 2.7 0 015-1.7zm11-.8a2.7 2.7 0 10-1.7-5.1 2.7 2.7 0 001.7 5zm-6.8 13.5a2.7 2.7 0 11-5 1.8 2.7 2.7 0 015-1.8zm11-.8a2.7 2.7 0 10-1.6-5.1 2.7 2.7 0 001.7 5zm1.6-45.8a2.7 2.7 0 11-5 1.7 2.7 2.7 0 015-1.7zm11-.9a2.7 2.7 0 10-1.7-5 2.7 2.7 0 001.7 5zm-6.7 13.6a2.7 2.7 0 11-5.1 1.7 2.7 2.7 0 015-1.7zm11-.9a2.7 2.7 0 10-1.7-5 2.7 2.7 0 001.7 5zm-6.7 13.6a2.7 2.7 0 11-5.1 1.7 2.7 2.7 0 015-1.7zm11-.9a2.7 2.7 0 10-1.7-5 2.7 2.7 0 001.7 5zm-6.8 13.6a2.7 2.7 0 11-5 1.7 2.7 2.7 0 015-1.7zm11-.9a2.7 2.7 0 10-1.7-5 2.7 2.7 0 001.8 5zm-82.9 39.3a2.7 2.7 0 11-5 1.7 2.7 2.7 0 015-1.7zm11-1a2.7 2.7 0 10-1.7-5 2.7 2.7 0 001.7 5zm-6.7 13.7a2.7 2.7 0 11-5 1.7 2.7 2.7 0 015-1.7zm11-1a2.7 2.7 0 10-1.7-5 2.7 2.7 0 001.7 5zm-6.7 13.7a2.7 2.7 0 11-5 1.7 2.7 2.7 0 015-1.8zm11-1a2.7 2.7 0 10-1.7-5 2.7 2.7 0 001.7 5zm-6.7 13.7a2.7 2.7 0 11-5.1 1.7 2.7 2.7 0 015-1.7zm11-1a2.7 2.7 0 10-1.7-5 2.7 2.7 0 001.7 5zM177 149a2.7 2.7 0 11-5 1.7 2.7 2.7 0 015-1.7zm11-.9a2.7 2.7 0 10-1.7-5 2.7 2.7 0 001.7 5zm-6.7 13.6a2.7 2.7 0 11-5 1.7 2.7 2.7 0 015-1.7zm11-.9a2.7 2.7 0 10-1.7-5 2.7 2.7 0 001.7 5zm-6.7 13.6a2.7 2.7 0 11-5.1 1.7 2.7 2.7 0 015-1.7zm11-.9a2.7 2.7 0 10-1.7-5 2.7 2.7 0 001.7 5zM190 187a2.7 2.7 0 11-5.1 1.7 2.7 2.7 0 015-1.7zm11-.9a2.7 2.7 0 10-1.7-5 2.7 2.7 0 001.7 5zm1.5-45.8a2.7 2.7 0 11-5 1.7 2.7 2.7 0 015-1.7zm11-.8a2.7 2.7 0 10-1.7-5.1 2.7 2.7 0 001.7 5zm-6.7 13.5a2.7 2.7 0 11-5 1.7 2.7 2.7 0 015-1.7zm11-.8a2.7 2.7 0 10-1.7-5.1 2.7 2.7 0 001.7 5zm-6.7 13.5a2.7 2.7 0 11-5.1 1.7 2.7 2.7 0 015-1.7zm11-.9a2.7 2.7 0 10-1.7-5 2.7 2.7 0 001.7 5zm-6.7 13.6a2.7 2.7 0 11-5.1 1.7 2.7 2.7 0 015-1.7zm11-.9a2.7 2.7 0 10-1.7-5 2.7 2.7 0 001.7 5zm1.5-45.7a2.7 2.7 0 11-5 1.7 2.7 2.7 0 015-1.7zm11-1a2.7 2.7 0 10-1.7-5 2.7 2.7 0 001.7 5zm-6.7 13.7a2.7 2.7 0 11-5 1.7 2.7 2.7 0 015-1.7zm11-.9a2.7 2.7 0 10-1.7-5 2.7 2.7 0 001.7 5zm-6.7 13.6a2.7 2.7 0 11-5.1 1.7 2.7 2.7 0 015-1.7zm11-1a2.7 2.7 0 10-1.7-5 2.7 2.7 0 001.7 5zm-6.7 13.7a2.7 2.7 0 11-5.1 1.7 2.7 2.7 0 015-1.7zm11-1a2.7 2.7 0 10-1.7-5 2.7 2.7 0 001.7 5zm-15.6-96.5a2.7 2.7 0 11-5 1.7 2.7 2.7 0 015-1.7zm11-.9a2.7 2.7 0 10-1.7-5 2.7 2.7 0 001.7 5zm-6.7 13.6a2.7 2.7 0 11-5.1 1.7 2.7 2.7 0 015-1.7zm11-.9a2.7 2.7 0 10-1.7-5 2.7 2.7 0 001.7 5zm-6.7 13.6a2.7 2.7 0 11-5.1 1.7 2.7 2.7 0 015-1.7zm11-.9a2.7 2.7 0 10-1.7-5 2.7 2.7 0 001.7 5zm-6.8 13.6a2.7 2.7 0 11-5 1.7 2.7 2.7 0 015-1.7zm11-.9a2.7 2.7 0 10-1.7-5 2.7 2.7 0 001.8 5zm1.6-45.7a2.7 2.7 0 11-5 1.7 2.7 2.7 0 015-1.7zm11-1a2.7 2.7 0 10-1.7-5 2.7 2.7 0 001.7 5zM266 76.7a2.7 2.7 0 11-5.1 1.7 2.7 2.7 0 015-1.7zm11-1a2.7 2.7 0 10-1.7-5 2.7 2.7 0 001.7 5zM270 89.4a2.7 2.7 0 11-5 1.7 2.7 2.7 0 015-1.7zm11-1a2.7 2.7 0 10-1.6-5 2.7 2.7 0 001.7 5zm-6.7 13.7a2.7 2.7 0 11-5 1.7 2.7 2.7 0 015-1.7zm11-1a2.7 2.7 0 10-1.7-5 2.7 2.7 0 001.7 5zm1.6-45.7a2.7 2.7 0 11-5 1.7 2.7 2.7 0 015-1.7zm11-.9a2.7 2.7 0 10-1.7-5 2.7 2.7 0 001.7 5zM291.3 68a2.7 2.7 0 11-5.1 1.7 2.7 2.7 0 015-1.7zm11-.9a2.7 2.7 0 10-1.7-5 2.7 2.7 0 001.7 5zm-6.8 13.6a2.7 2.7 0 11-5 1.7 2.7 2.7 0 015-1.7zm11-.9a2.7 2.7 0 10-1.6-5 2.7 2.7 0 001.7 5zm-6.7 13.6a2.7 2.7 0 11-5 1.7 2.7 2.7 0 015-1.7zm11-.9a2.7 2.7 0 10-1.7-5 2.7 2.7 0 001.7 5zm1.6-45.7a2.7 2.7 0 11-5.1 1.7 2.7 2.7 0 015-1.7zm11-1a2.7 2.7 0 10-1.7-5 2.7 2.7 0 001.7 5zm-6.7 13.7a2.7 2.7 0 11-5.1 1.7 2.7 2.7 0 015-1.7zm11-1a2.7 2.7 0 10-1.7-5 2.7 2.7 0 001.7 5zm-6.8 13.6a2.7 2.7 0 11-5 1.8 2.7 2.7 0 015-1.8zm11-.8a2.7 2.7 0 10-1.6-5.1 2.7 2.7 0 001.7 5zm-6.7 13.6a2.7 2.7 0 11-5 1.7 2.7 2.7 0 015-1.7zm11-1a2.7 2.7 0 10-1.7-5 2.7 2.7 0 001.7 5zm-82.9 39.3a2.7 2.7 0 11-5 1.7 2.7 2.7 0 015-1.7zm11-.9a2.7 2.7 0 10-1.7-5 2.7 2.7 0 001.7 5zm-6.7 13.6a2.7 2.7 0 11-5 1.7 2.7 2.7 0 015-1.7zm11-.9a2.7 2.7 0 10-1.7-5 2.7 2.7 0 001.7 5zm-6.7 13.6a2.7 2.7 0 11-5.1 1.7 2.7 2.7 0 015-1.7zm11-.9a2.7 2.7 0 10-1.7-5 2.7 2.7 0 001.7 5zm-6.7 13.6a2.7 2.7 0 11-5.1 1.7 2.7 2.7 0 015-1.7zm11-.9a2.7 2.7 0 10-1.7-5 2.7 2.7 0 001.7 5zm1.5-45.7a2.7 2.7 0 11-5 1.7 2.7 2.7 0 015-1.7zm11-1a2.7 2.7 0 10-1.7-5 2.7 2.7 0 001.7 5zm-6.7 13.7a2.7 2.7 0 11-5 1.7 2.7 2.7 0 015-1.7zm11-1a2.7 2.7 0 10-1.7-5 2.7 2.7 0 001.7 5zm-6.7 13.7a2.7 2.7 0 11-5.1 1.7 2.7 2.7 0 015-1.7zm11-1a2.7 2.7 0 10-1.7-5 2.7 2.7 0 001.7 5zm-6.8 13.7a2.7 2.7 0 11-5 1.7 2.7 2.7 0 015-1.7zm11-1a2.7 2.7 0 10-1.6-5 2.7 2.7 0 001.7 5zm1.6-45.7a2.7 2.7 0 11-5 1.7 2.7 2.7 0 015-1.7zm11-.9a2.7 2.7 0 10-1.7-5 2.7 2.7 0 001.7 5zm-6.7 13.6a2.7 2.7 0 11-5.1 1.7 2.7 2.7 0 015-1.7zm11-.9a2.7 2.7 0 10-1.7-5 2.7 2.7 0 001.7 5zm-6.7 13.6a2.7 2.7 0 11-5.1 1.7 2.7 2.7 0 015-1.7zm11-.9a2.7 2.7 0 10-1.7-5 2.7 2.7 0 001.7 5zm-6.8 13.6a2.7 2.7 0 11-5 1.7 2.7 2.7 0 015-1.7zm11-.9a2.7 2.7 0 10-1.6-5 2.7 2.7 0 001.7 5zm1.6-45.8a2.7 2.7 0 11-5 1.8 2.7 2.7 0 015-1.8zm11-.8a2.7 2.7 0 10-1.7-5.1 2.7 2.7 0 001.7 5zm-6.7 13.5a2.7 2.7 0 11-5.1 1.8 2.7 2.7 0 015-1.8zm11-.8a2.7 2.7 0 10-1.7-5.1 2.7 2.7 0 001.7 5zm-6.7 13.5a2.7 2.7 0 11-5.1 1.7 2.7 2.7 0 015-1.7zm11-.8a2.7 2.7 0 10-1.7-5.1 2.7 2.7 0 001.7 5zm-6.8 13.5a2.7 2.7 0 11-5 1.8 2.7 2.7 0 015-1.8zm11-.8a2.7 2.7 0 10-1.7-5.1 2.7 2.7 0 001.8 5zM125.8-3.5a2.7 2.7 0 11-5.1 1.7 2.7 2.7 0 015-1.7zm-27.1 12A2.7 2.7 0 1097 3.4a2.7 2.7 0 001.7 5zm12.7-4.3a2.7 2.7 0 10-1.7-5 2.7 2.7 0 001.7 5zm-6.7 13.6a2.7 2.7 0 11-5.1 1.7 2.7 2.7 0 015-1.7zm11-1a2.7 2.7 0 10-1.7-5 2.7 2.7 0 001.7 5zm-6.8 13.7a2.7 2.7 0 11-5 1.7 2.7 2.7 0 015-1.7zm11-1a2.7 2.7 0 10-1.7-5 2.7 2.7 0 001.8 5zm-6.7 13.7a2.7 2.7 0 11-5 1.7 2.7 2.7 0 015-1.7zm11-1a2.7 2.7 0 10-1.7-5 2.7 2.7 0 001.7 5zm12.6-46.6a2.7 2.7 0 10-1.7-5 2.7 2.7 0 001.7 5zM130 9.2A2.7 2.7 0 11125 11a2.7 2.7 0 015-1.7zm11-.9a2.7 2.7 0 10-1.7-5 2.7 2.7 0 001.7 5zM134.3 22a2.7 2.7 0 11-5 1.7 2.7 2.7 0 015-1.7zm11-.9a2.7 2.7 0 10-1.7-5 2.7 2.7 0 001.7 5zm-6.7 13.6a2.7 2.7 0 11-5 1.7 2.7 2.7 0 015-1.7zm11-.9a2.7 2.7 0 10-1.7-5 2.7 2.7 0 001.7 5zm1.6-45.7a2.7 2.7 0 11-5.1 1.7 2.7 2.7 0 015-1.7zm11-1a2.7 2.7 0 10-1.7-5 2.7 2.7 0 001.7 5zM155.4.8a2.7 2.7 0 11-5 1.7 2.7 2.7 0 015-1.7zm11-1a2.7 2.7 0 10-1.6-5 2.7 2.7 0 001.7 5zm-6.7 13.7a2.7 2.7 0 11-5 1.7 2.7 2.7 0 015-1.7zm11-1a2.7 2.7 0 10-1.7-5 2.7 2.7 0 001.7 5zM164 26.2a2.7 2.7 0 11-5 1.7 2.7 2.7 0 015-1.7zm11-1a2.7 2.7 0 10-1.7-5 2.7 2.7 0 001.7 5zm1.6-45.7a2.7 2.7 0 11-5.1 1.7 2.7 2.7 0 015-1.7zm11-.9a2.7 2.7 0 10-1.7-5 2.7 2.7 0 001.7 5zm-6.8 13.6a2.7 2.7 0 11-5 1.7 2.7 2.7 0 015-1.7zm11-.9a2.7 2.7 0 10-1.6-5 2.7 2.7 0 001.7 5zm-6.7 13.6a2.7 2.7 0 11-5 1.7 2.7 2.7 0 015-1.7zm11-.9a2.7 2.7 0 10-1.7-5 2.7 2.7 0 001.7 5zm-6.7 13.6a2.7 2.7 0 11-5 1.7 2.7 2.7 0 015-1.7zm11-.9a2.7 2.7 0 10-1.7-5 2.7 2.7 0 001.7 5zm-83 39.3a2.7 2.7 0 11-5 1.7 2.7 2.7 0 015-1.7zm11.1-1a2.7 2.7 0 10-1.7-5 2.7 2.7 0 001.7 5zm-6.7 13.7a2.7 2.7 0 11-5.1 1.7 2.7 2.7 0 015-1.7zm11-1a2.7 2.7 0 10-1.7-5 2.7 2.7 0 001.7 5zM126 81.4A2.7 2.7 0 11121 83a2.7 2.7 0 015-1.7zm11-1a2.7 2.7 0 10-1.7-5 2.7 2.7 0 001.7 5zM130.3 94a2.7 2.7 0 11-5 1.7 2.7 2.7 0 015-1.7zm11-1a2.7 2.7 0 10-1.7-5 2.7 2.7 0 001.7 5zm1.6-45.7a2.7 2.7 0 11-5 1.7 2.7 2.7 0 015-1.7zm11-.9a2.7 2.7 0 10-1.7-5 2.7 2.7 0 001.7 5zM147.2 60a2.7 2.7 0 11-5.1 1.7 2.7 2.7 0 015-1.7zm11-.9a2.7 2.7 0 10-1.7-5 2.7 2.7 0 001.7 5zm-6.8 13.6a2.7 2.7 0 11-5 1.7 2.7 2.7 0 015-1.7zm11-.9a2.7 2.7 0 10-1.6-5 2.7 2.7 0 001.7 5zm-6.7 13.6a2.7 2.7 0 11-5 1.7 2.7 2.7 0 015-1.7zm11-.9a2.7 2.7 0 10-1.7-5 2.7 2.7 0 001.7 5zm1.6-45.7a2.7 2.7 0 11-5 1.7 2.7 2.7 0 015-1.7zm11-1a2.7 2.7 0 10-1.7-5 2.7 2.7 0 001.7 5zm-6.7 13.7a2.7 2.7 0 11-5.1 1.7 2.7 2.7 0 015-1.7zm11-1a2.7 2.7 0 10-1.7-5 2.7 2.7 0 001.7 5zm-6.8 13.6a2.7 2.7 0 11-5 1.7 2.7 2.7 0 015-1.7zm11-.8a2.7 2.7 0 10-1.6-5.1 2.7 2.7 0 001.7 5zm-6.7 13.5a2.7 2.7 0 11-5 1.8 2.7 2.7 0 015-1.8zm11-.8a2.7 2.7 0 10-1.7-5.1 2.7 2.7 0 001.7 5zm1.6-45.8a2.7 2.7 0 11-5.1 1.7 2.7 2.7 0 015-1.7zm11-.9a2.7 2.7 0 10-1.7-5 2.7 2.7 0 001.7 5zM198 43a2.7 2.7 0 11-5.1 1.7 2.7 2.7 0 015-1.7zm11-.9a2.7 2.7 0 10-1.7-5 2.7 2.7 0 001.7 5zm-6.8 13.6a2.7 2.7 0 11-5 1.7 2.7 2.7 0 015-1.7zm11-.9a2.7 2.7 0 10-1.7-5 2.7 2.7 0 001.8 5zm-6.7 13.6a2.7 2.7 0 11-5 1.7 2.7 2.7 0 015-1.7zm11-.9a2.7 2.7 0 10-1.7-5 2.7 2.7 0 001.7 5zM202-29.2a2.7 2.7 0 11-5.1 1.7 2.7 2.7 0 015-1.7zm11-.8a2.7 2.7 0 10-1.7-5.1 2.7 2.7 0 001.7 5zm-6.8 13.5a2.7 2.7 0 11-5 1.8 2.7 2.7 0 015-1.8zm11-.8a2.7 2.7 0 10-1.6-5.1 2.7 2.7 0 001.7 5zm-6.7 13.5a2.7 2.7 0 11-5 1.7 2.7 2.7 0 015-1.7zm11-.9a2.7 2.7 0 10-1.7-5 2.7 2.7 0 001.7 5zM214.8 9a2.7 2.7 0 11-5 1.7 2.7 2.7 0 015-1.7zm11-.8a2.7 2.7 0 10-1.7-5.1 2.7 2.7 0 001.7 5zm1.6-45.8a2.7 2.7 0 11-5.1 1.7 2.7 2.7 0 015-1.7zm11-.9a2.7 2.7 0 10-1.7-5 2.7 2.7 0 001.7 5zM231.6-25a2.7 2.7 0 11-5 1.7 2.7 2.7 0 015-1.7zm11-.9a2.7 2.7 0 10-1.7-5 2.7 2.7 0 001.8 5zM236-12.3a2.7 2.7 0 11-5 1.7 2.7 2.7 0 015-1.7zm11-1a2.7 2.7 0 10-1.7-5 2.7 2.7 0 001.7 5zM240.2.5a2.7 2.7 0 11-5 1.7 2.7 2.7 0 015-1.7zm11-1a2.7 2.7 0 10-1.7-5 2.7 2.7 0 001.7 5zm1.6-45.7a2.7 2.7 0 11-5.1 1.7 2.7 2.7 0 015-1.7zm11-.9a2.7 2.7 0 10-1.7-5 2.7 2.7 0 001.7 5zM257-33.6a2.7 2.7 0 11-5 1.7 2.7 2.7 0 015-1.7zm11-.9a2.7 2.7 0 10-1.7-5 2.7 2.7 0 001.7 5zm-6.7 13.6a2.7 2.7 0 11-5 1.7 2.7 2.7 0 015-1.7zm11-.9a2.7 2.7 0 10-1.7-5 2.7 2.7 0 001.7 5zm-6.7 13.6a2.7 2.7 0 11-5 1.7 2.7 2.7 0 015-1.7zm11-.9a2.7 2.7 0 10-1.7-5 2.7 2.7 0 001.7 5zm1.5-45.7a2.7 2.7 0 11-5 1.7 2.7 2.7 0 015-1.7zm11-1a2.7 2.7 0 10-1.6-5 2.7 2.7 0 001.7 5zM282.5-42a2.7 2.7 0 11-5 1.7 2.7 2.7 0 015-1.7zm11-1a2.7 2.7 0 10-1.7-5 2.7 2.7 0 001.7 5zm-6.7 13.7a2.7 2.7 0 11-5 1.7 2.7 2.7 0 015-1.7zm11-1a2.7 2.7 0 10-1.7-5 2.7 2.7 0 001.7 5zM291-16.6a2.7 2.7 0 11-5 1.7 2.7 2.7 0 015-1.7zm11-1a2.7 2.7 0 10-1.7-5 2.7 2.7 0 001.7 5zm-83 39.3a2.7 2.7 0 11-5 1.7 2.7 2.7 0 015-1.7zm11-.9a2.7 2.7 0 10-1.6-5 2.7 2.7 0 001.7 5zm-6.6 13.6a2.7 2.7 0 11-5.1 1.7 2.7 2.7 0 015-1.7zm11-.9a2.7 2.7 0 10-1.7-5 2.7 2.7 0 001.7 5zM227.6 47a2.7 2.7 0 11-5 1.7 2.7 2.7 0 015-1.7zm11-.9a2.7 2.7 0 10-1.7-5 2.7 2.7 0 001.8 5zM232 59.7a2.7 2.7 0 11-5 1.7 2.7 2.7 0 015-1.7zm11-.9a2.7 2.7 0 10-1.7-5 2.7 2.7 0 001.7 5zm1.6-45.7a2.7 2.7 0 11-5.1 1.7 2.7 2.7 0 015-1.7zm11-1a2.7 2.7 0 10-1.7-5 2.7 2.7 0 001.7 5zm-6.7 13.7a2.7 2.7 0 11-5.1 1.7 2.7 2.7 0 015-1.7zm11-1a2.7 2.7 0 10-1.7-5 2.7 2.7 0 001.7 5zM253 38.6a2.7 2.7 0 11-5 1.7 2.7 2.7 0 015-1.7zm11-1a2.7 2.7 0 10-1.7-5 2.7 2.7 0 001.7 5zm-6.7 13.7a2.7 2.7 0 11-5 1.7 2.7 2.7 0 015-1.7zm11-1a2.7 2.7 0 10-1.7-5 2.7 2.7 0 001.7 5zM270 4.6a2.7 2.7 0 11-5.1 1.7 2.7 2.7 0 015-1.7zm11-.9a2.7 2.7 0 10-1.7-5 2.7 2.7 0 001.7 5zM274 17.2a2.7 2.7 0 11-5 1.7 2.7 2.7 0 015-1.7zm11-.9a2.7 2.7 0 10-1.6-5 2.7 2.7 0 001.7 5zM278.5 30a2.7 2.7 0 11-5 1.7 2.7 2.7 0 015-1.7zm11-.9a2.7 2.7 0 10-1.7-5 2.7 2.7 0 001.7 5zm-6.7 13.6a2.7 2.7 0 11-5 1.7 2.7 2.7 0 015-1.7zm11-.9a2.7 2.7 0 10-1.7-5 2.7 2.7 0 001.7 5zM295.3-4a2.7 2.7 0 11-5.1 1.7 2.7 2.7 0 015-1.7zm11-1a2.7 2.7 0 10-1.7-5 2.7 2.7 0 001.7 5zm-6.8 13.7a2.7 2.7 0 11-5 1.7 2.7 2.7 0 015-1.7zm11-1a2.7 2.7 0 10-1.6-5 2.7 2.7 0 001.7 5zm-6.7 13.7a2.7 2.7 0 11-5 1.7 2.7 2.7 0 015-1.7zm11-1a2.7 2.7 0 10-1.7-5 2.7 2.7 0 001.7 5zm-6.7 13.7a2.7 2.7 0 11-5 1.7 2.7 2.7 0 015-1.7zm11-1a2.7 2.7 0 10-1.7-5 2.7 2.7 0 001.7 5zM167.2 211.6a2.7 2.7 0 10-1.8-5 2.7 2.7 0 001.8 5zm12.7-4.2a2.7 2.7 0 10-1.7-5.1 2.7 2.7 0 001.7 5zM173 221a2.7 2.7 0 11-5 1.7 2.7 2.7 0 015-1.7zm11-1a2.7 2.7 0 10-1.7-5 2.7 2.7 0 001.7 5zm-6.7 13.6a2.7 2.7 0 11-5 1.8 2.7 2.7 0 015-1.8zm11-.8a2.7 2.7 0 10-1.7-5.1 2.7 2.7 0 001.7 5zm-6.7 13.5a2.7 2.7 0 11-5.1 1.8 2.7 2.7 0 015-1.8zm11-.8a2.7 2.7 0 10-1.7-5.1 2.7 2.7 0 001.7 5zm1.5-45.8a2.7 2.7 0 11-5 1.7 2.7 2.7 0 015-1.7zm11-.9a2.7 2.7 0 10-1.7-5 2.7 2.7 0 001.8 5zm-6.7 13.6a2.7 2.7 0 11-5 1.7 2.7 2.7 0 015-1.7zm11-.9a2.7 2.7 0 10-1.7-5 2.7 2.7 0 001.7 5zm-6.7 13.6a2.7 2.7 0 11-5 1.7 2.7 2.7 0 015-1.7zm11-.9a2.7 2.7 0 10-1.7-5 2.7 2.7 0 001.7 5zm-6.7 13.6a2.7 2.7 0 11-5.1 1.7 2.7 2.7 0 015-1.7zm11-.9a2.7 2.7 0 10-1.7-5 2.7 2.7 0 001.7 5zm1.5-45.8a2.7 2.7 0 11-5 1.7 2.7 2.7 0 015-1.7zm11-.9a2.7 2.7 0 10-1.7-5 2.7 2.7 0 001.8 5zm-6.7 13.6a2.7 2.7 0 11-5 1.7 2.7 2.7 0 015-1.7zm11-.9a2.7 2.7 0 10-1.7-5 2.7 2.7 0 001.7 5zm-6.7 13.6a2.7 2.7 0 11-5 1.7 2.7 2.7 0 015-1.7zm11-.9a2.7 2.7 0 10-1.7-5 2.7 2.7 0 001.7 5zm-6.7 13.6a2.7 2.7 0 11-5.1 1.7 2.7 2.7 0 015-1.7zm11-.9a2.7 2.7 0 10-1.7-5 2.7 2.7 0 001.7 5zm1.5-45.7a2.7 2.7 0 11-5 1.7 2.7 2.7 0 015-1.7zm11-1a2.7 2.7 0 10-1.7-5 2.7 2.7 0 001.7 5zm-6.7 13.7a2.7 2.7 0 11-5 1.7 2.7 2.7 0 015-1.7zm11-1a2.7 2.7 0 10-1.7-5 2.7 2.7 0 001.7 5zm-6.7 13.7a2.7 2.7 0 11-5 1.7 2.7 2.7 0 015-1.7zm11-1a2.7 2.7 0 10-1.7-5 2.7 2.7 0 001.7 5zm-6.7 13.7a2.7 2.7 0 11-5.1 1.7 2.7 2.7 0 015-1.7zm11-1a2.7 2.7 0 10-1.7-5 2.7 2.7 0 001.7 5zm-83 39.3a2.7 2.7 0 11-5 1.7 2.7 2.7 0 015-1.7zm11-.8a2.7 2.7 0 10-1.6-5.1 2.7 2.7 0 001.7 5zm-6.7 13.5a2.7 2.7 0 11-5 1.8 2.7 2.7 0 015-1.8zm11-.8a2.7 2.7 0 10-1.6-5.1 2.7 2.7 0 001.7 5zm-6.7 13.5a2.7 2.7 0 11-5 1.7 2.7 2.7 0 015-1.7zm11-.9a2.7 2.7 0 10-1.7-5 2.7 2.7 0 001.7 5zm-6.7 13.6a2.7 2.7 0 11-5 1.7 2.7 2.7 0 015-1.7zm11-.9a2.7 2.7 0 10-1.7-5 2.7 2.7 0 001.7 5zm1.6-45.7a2.7 2.7 0 11-5.1 1.7 2.7 2.7 0 015-1.7zm11-1a2.7 2.7 0 10-1.7-5 2.7 2.7 0 001.7 5zm-6.8 13.7a2.7 2.7 0 11-5 1.7 2.7 2.7 0 015-1.7zm11-.9a2.7 2.7 0 10-1.7-5 2.7 2.7 0 001.8 5zm-6.7 13.6a2.7 2.7 0 11-5 1.7 2.7 2.7 0 015-1.7zm11-1a2.7 2.7 0 10-1.7-5 2.7 2.7 0 001.7 5zm-6.7 13.7a2.7 2.7 0 11-5 1.7 2.7 2.7 0 015-1.7zm11-1a2.7 2.7 0 10-1.7-5 2.7 2.7 0 001.7 5zm1.6-45.7a2.7 2.7 0 11-5.1 1.7 2.7 2.7 0 015-1.7zm11-.9a2.7 2.7 0 10-1.7-5 2.7 2.7 0 001.7 5zm-6.8 13.6a2.7 2.7 0 11-5 1.7 2.7 2.7 0 015-1.7zm11-.9a2.7 2.7 0 10-1.7-5 2.7 2.7 0 001.8 5zm-6.7 13.6a2.7 2.7 0 11-5 1.7 2.7 2.7 0 015-1.7zm11-.9a2.7 2.7 0 10-1.7-5 2.7 2.7 0 001.7 5zm-6.7 13.6a2.7 2.7 0 11-5 1.7 2.7 2.7 0 015-1.7zm11-.9a2.7 2.7 0 10-1.7-5 2.7 2.7 0 001.7 5zm1.5-45.7a2.7 2.7 0 11-5 1.7 2.7 2.7 0 015-1.7zm11-1a2.7 2.7 0 10-1.6-5 2.7 2.7 0 001.7 5zm-6.7 13.7a2.7 2.7 0 11-5 1.7 2.7 2.7 0 015-1.7zm11-1a2.7 2.7 0 10-1.7-5 2.7 2.7 0 001.7 5zm-6.7 13.7a2.7 2.7 0 11-5 1.7 2.7 2.7 0 015-1.7zm11-1a2.7 2.7 0 10-1.7-5 2.7 2.7 0 001.7 5zm-6.7 13.7a2.7 2.7 0 11-5 1.7 2.7 2.7 0 015-1.7zm11-1a2.7 2.7 0 10-1.7-5 2.7 2.7 0 001.7 5zM270.4 174a2.7 2.7 0 11-5 1.7 2.7 2.7 0 015-1.7zm11-.9a2.7 2.7 0 10-1.7-5 2.7 2.7 0 001.7 5zm-6.7 13.6a2.7 2.7 0 11-5 1.7 2.7 2.7 0 015-1.7zm11-.9a2.7 2.7 0 10-1.7-5 2.7 2.7 0 001.7 5zm-6.7 13.6a2.7 2.7 0 11-5 1.7 2.7 2.7 0 015-1.7zm11-.9a2.7 2.7 0 10-1.7-5 2.7 2.7 0 001.7 5zm-6.7 13.6a2.7 2.7 0 11-5.1 1.7 2.7 2.7 0 015-1.7zm11-.9a2.7 2.7 0 10-1.7-5 2.7 2.7 0 001.7 5zm1.5-45.7a2.7 2.7 0 11-5 1.7 2.7 2.7 0 015-1.7zm11-1a2.7 2.7 0 10-1.7-5 2.7 2.7 0 001.7 5zm-6.7 13.7a2.7 2.7 0 11-5 1.7 2.7 2.7 0 015-1.7zm11-1a2.7 2.7 0 10-1.7-5 2.7 2.7 0 001.7 5zm-6.7 13.6a2.7 2.7 0 11-5.1 1.8 2.7 2.7 0 015-1.8zm11-.8a2.7 2.7 0 10-1.7-5.1 2.7 2.7 0 001.7 5zm-6.7 13.6a2.7 2.7 0 11-5.1 1.7 2.7 2.7 0 015-1.7zm11-1a2.7 2.7 0 10-1.7-5 2.7 2.7 0 001.7 5zm1.5-45.7a2.7 2.7 0 11-5 1.7 2.7 2.7 0 015-1.7zm11-.9a2.7 2.7 0 10-1.7-5 2.7 2.7 0 001.7 5zm-6.7 13.6a2.7 2.7 0 11-5 1.7 2.7 2.7 0 015-1.7zm11-.9a2.7 2.7 0 10-1.7-5 2.7 2.7 0 001.7 5zm-6.7 13.6a2.7 2.7 0 11-5.1 1.7 2.7 2.7 0 015-1.7zm11-.9a2.7 2.7 0 10-1.7-5 2.7 2.7 0 001.7 5zm-6.7 13.6a2.7 2.7 0 11-5.1 1.7 2.7 2.7 0 015-1.7zm11-.9a2.7 2.7 0 10-1.7-5 2.7 2.7 0 001.7 5zm1.5-45.8a2.7 2.7 0 11-5 1.7 2.7 2.7 0 015-1.7zm11-.8a2.7 2.7 0 10-1.7-5.1 2.7 2.7 0 001.7 5zM351 161a2.7 2.7 0 11-5 1.7 2.7 2.7 0 015-1.7zm11-.8a2.7 2.7 0 10-1.7-5.1 2.7 2.7 0 001.7 5zm-6.7 13.5a2.7 2.7 0 11-5.1 1.7 2.7 2.7 0 015-1.7zm11-.9a2.7 2.7 0 10-1.7-5 2.7 2.7 0 001.7 5zm-6.7 13.6a2.7 2.7 0 11-5.1 1.7 2.7 2.7 0 015-1.7zm11-.9a2.7 2.7 0 10-1.7-5 2.7 2.7 0 001.7 5zm-83 39.3a2.7 2.7 0 11-5 1.7 2.7 2.7 0 015-1.7zm11-.9a2.7 2.7 0 10-1.6-5 2.7 2.7 0 001.7 5zm-6.7 13.6a2.7 2.7 0 11-5 1.7 2.7 2.7 0 015-1.7zm11-.9a2.7 2.7 0 10-1.7-5 2.7 2.7 0 001.7 5zm-6.7 13.6a2.7 2.7 0 11-5 1.7 2.7 2.7 0 015-1.7zm11-.9a2.7 2.7 0 10-1.7-5 2.7 2.7 0 001.7 5zm-6.7 13.6a2.7 2.7 0 11-5 1.7 2.7 2.7 0 015-1.7zm11-.9a2.7 2.7 0 10-1.7-5 2.7 2.7 0 001.7 5zm1.5-45.8a2.7 2.7 0 11-5 1.8 2.7 2.7 0 015-1.8zm11-.8a2.7 2.7 0 10-1.6-5.1 2.7 2.7 0 001.7 5zm-6.7 13.5a2.7 2.7 0 11-5 1.8 2.7 2.7 0 015-1.8zm11-.8a2.7 2.7 0 10-1.7-5.1 2.7 2.7 0 001.7 5zm-6.7 13.5a2.7 2.7 0 11-5 1.7 2.7 2.7 0 015-1.7zm11-.8a2.7 2.7 0 10-1.7-5.1 2.7 2.7 0 001.7 5zm-6.7 13.5a2.7 2.7 0 11-5.1 1.8 2.7 2.7 0 015-1.8zm11-.8a2.7 2.7 0 10-1.7-5.1 2.7 2.7 0 001.7 5zm1.5-45.8a2.7 2.7 0 11-5 1.7 2.7 2.7 0 015-1.7zm11-.9a2.7 2.7 0 10-1.7-5 2.7 2.7 0 001.8 5zm-6.7 13.6a2.7 2.7 0 11-5 1.7 2.7 2.7 0 015-1.7zm11-.9a2.7 2.7 0 10-1.7-5 2.7 2.7 0 001.7 5zm-6.7 13.6a2.7 2.7 0 11-5 1.7 2.7 2.7 0 015-1.7zm11-1a2.7 2.7 0 10-1.7-5 2.7 2.7 0 001.7 5zm-6.7 13.7a2.7 2.7 0 11-5.1 1.7 2.7 2.7 0 015-1.7zm11-.9a2.7 2.7 0 10-1.7-5 2.7 2.7 0 001.7 5zm1.5-45.8a2.7 2.7 0 11-5 1.7 2.7 2.7 0 015-1.7zm11-.9a2.7 2.7 0 10-1.7-5 2.7 2.7 0 001.8 5zm-6.7 13.6a2.7 2.7 0 11-5 1.7 2.7 2.7 0 015-1.7zm11-.9a2.7 2.7 0 10-1.7-5 2.7 2.7 0 001.7 5zm-6.7 13.6a2.7 2.7 0 11-5 1.7 2.7 2.7 0 015-1.7zm11-.9a2.7 2.7 0 10-1.7-5 2.7 2.7 0 001.7 5zm-6.7 13.6a2.7 2.7 0 11-5.1 1.7 2.7 2.7 0 015-1.7zm11-.9a2.7 2.7 0 10-1.7-5 2.7 2.7 0 001.7 5z"/>
  </g>
</svg>